M48
;Layer_Color=9474304
;FILE_FORMAT=4:4
METRIC,LZ
;TYPE=PLATED
T01F00S00C0.7620
T02F00S00C1.0000
T03F00S00C1.0160
T04F00S00C1.0200
T05F00S00C1.0800
%
T01
X0045085Y0092583
X0074676Y0082931
X0075692Y0102108
X0137922Y0090424
T02
X0127254Y0071374
Y0073914
Y0076454
Y0078994
X0078994Y007747
Y007493
Y007239
Y006985
Y006731
Y006477
Y006223
Y008001
Y008255
Y008509
Y0089154
Y0091694
Y0094234
Y0096774
Y0099314
Y0101854
Y0104394
Y0106934
X0127254
Y0104394
Y0101854
Y0099314
Y0096774
Y0094234
Y0089154
Y0086614
Y0084074
Y0081534
T03
X005969Y0051181
Y0053721
X0054356Y0066294
Y0068834
Y0071374
Y0073914
T04
X0142748Y0089408
Y0091948
Y0094488
Y0097028
Y0099568
Y0102108
Y0104648
Y0107188
T05
X0036703Y0078994
Y0081534
Y0084074
Y0086614
Y0089154
Y0091694
Y0094234
Y0096774
X0041783Y0095504
Y0092964
Y0090424
Y0087884
Y0085344
Y0082804
Y0080264
M30
