G04*
G04 #@! TF.GenerationSoftware,Altium Limited,Altium Designer,23.9.2 (47)*
G04*
G04 Layer_Color=65535*
%FSLAX44Y44*%
%MOMM*%
G71*
G04*
G04 #@! TF.SameCoordinates,78F578D7-C6A0-49DB-A759-4A378E73C2F3*
G04*
G04*
G04 #@! TF.FilePolarity,Positive*
G04*
G01*
G75*
%ADD10C,0.2000*%
%ADD11C,0.2540*%
%ADD12C,0.1270*%
%ADD13C,0.1524*%
%ADD14C,0.3048*%
%ADD15C,0.1451*%
%ADD16C,0.1036*%
%ADD17C,0.1209*%
D10*
X352130Y967740D02*
G03*
X352130Y967740I-1000J0D01*
G01*
X561340Y655320D02*
X568960D01*
X561340D02*
Y670560D01*
X568960D01*
X561340Y731520D02*
X568960D01*
X561340D02*
Y746760D01*
X568960D01*
X508000Y764540D02*
X568960D01*
Y637540D02*
Y764540D01*
X508000Y637540D02*
X568960D01*
X508000D02*
Y764540D01*
X610870Y495300D02*
Y553720D01*
X582930D02*
X610870D01*
X582930Y495300D02*
Y553720D01*
Y495300D02*
X610870D01*
X1446530Y1097280D02*
X1446530Y868680D01*
X1408430D02*
X1579880D01*
Y1097280D01*
X1408430D02*
X1579880D01*
X1408430Y868680D02*
Y1097280D01*
D11*
X1297940Y1084834D02*
G03*
X1287780Y1094740I-10033J-127D01*
G01*
Y434340D02*
G03*
X1297940Y444500I0J10160D01*
G01*
X764540D02*
G03*
X774446Y434340I10033J-127D01*
G01*
X764540Y444500D02*
Y1079500D01*
X779780Y1094740D01*
X894080D01*
X919480Y1120140D02*
X1247140D01*
X1272540Y1094740D01*
X1287780D01*
X1297940Y444500D02*
Y1084834D01*
X774446Y434340D02*
X1287780D01*
X894080Y1094740D02*
X919480Y1120140D01*
X1037540Y619940D02*
X1027383D01*
X1022305Y625018D01*
X1027383Y630097D01*
X1037540D01*
X1029922D01*
Y619940D01*
X1027383Y635175D02*
X1037540D01*
X1032462D01*
X1029922Y637714D01*
X1027383Y640253D01*
Y642793D01*
X1022305Y660567D02*
X1037540D01*
Y652949D01*
X1035001Y650410D01*
X1029922D01*
X1027383Y652949D01*
Y660567D01*
Y665645D02*
X1035001D01*
X1037540Y668184D01*
Y675802D01*
X1027383D01*
X1037540Y680880D02*
Y685959D01*
Y683419D01*
X1027383D01*
Y680880D01*
X1037540Y693576D02*
X1027383D01*
Y701194D01*
X1029922Y703733D01*
X1037540D01*
Y711350D02*
Y716429D01*
X1035001Y718968D01*
X1029922D01*
X1027383Y716429D01*
Y711350D01*
X1029922Y708811D01*
X1035001D01*
X1037540Y711350D01*
X1022305Y739281D02*
X1037540D01*
Y746899D01*
X1035001Y749438D01*
X1024844D01*
X1022305Y746899D01*
Y739281D01*
X1027383Y757056D02*
Y762134D01*
X1029922Y764673D01*
X1037540D01*
Y757056D01*
X1035001Y754516D01*
X1032462Y757056D01*
Y764673D01*
X1024844Y772291D02*
X1027383D01*
Y769752D01*
Y774830D01*
Y772291D01*
X1035001D01*
X1037540Y774830D01*
X1027383Y784987D02*
Y790065D01*
X1029922Y792604D01*
X1037540D01*
Y784987D01*
X1035001Y782447D01*
X1032462Y784987D01*
Y792604D01*
X1037540Y797682D02*
Y802761D01*
Y800222D01*
X1022305D01*
Y797682D01*
X1037540Y812918D02*
Y817996D01*
X1035001Y820535D01*
X1029922D01*
X1027383Y817996D01*
Y812918D01*
X1029922Y810378D01*
X1035001D01*
X1037540Y812918D01*
X1042618Y830692D02*
Y833231D01*
X1040079Y835770D01*
X1027383D01*
Y828153D01*
X1029922Y825613D01*
X1035001D01*
X1037540Y828153D01*
Y835770D01*
X1042618Y845927D02*
Y848466D01*
X1040079Y851005D01*
X1027383D01*
Y843388D01*
X1029922Y840848D01*
X1035001D01*
X1037540Y843388D01*
Y851005D01*
Y863701D02*
Y858623D01*
X1035001Y856084D01*
X1029922D01*
X1027383Y858623D01*
Y863701D01*
X1029922Y866240D01*
X1032462D01*
Y856084D01*
X1027383Y871319D02*
X1037540D01*
X1032462D01*
X1029922Y873858D01*
X1027383Y876397D01*
Y878936D01*
X1024844Y911945D02*
X1022305Y909406D01*
Y904328D01*
X1024844Y901789D01*
X1027383D01*
X1029922Y904328D01*
Y909406D01*
X1032462Y911945D01*
X1035001D01*
X1037540Y909406D01*
Y904328D01*
X1035001Y901789D01*
X1022305Y917024D02*
X1037540D01*
X1029922D01*
X1027383Y919563D01*
Y924641D01*
X1029922Y927181D01*
X1037540D01*
Y932259D02*
Y937337D01*
Y934798D01*
X1027383D01*
Y932259D01*
X1037540Y952572D02*
Y947494D01*
X1035001Y944955D01*
X1029922D01*
X1027383Y947494D01*
Y952572D01*
X1029922Y955112D01*
X1032462D01*
Y944955D01*
X1037540Y960190D02*
Y965268D01*
Y962729D01*
X1022305D01*
Y960190D01*
Y983043D02*
X1037540D01*
Y975425D01*
X1035001Y972886D01*
X1029922D01*
X1027383Y975425D01*
Y983043D01*
X1517651Y922020D02*
X1502416D01*
X1507494Y927098D01*
X1502416Y932177D01*
X1517651D01*
Y937255D02*
X1502416D01*
Y944873D01*
X1504955Y947412D01*
X1510033D01*
X1512572Y944873D01*
Y937255D01*
X1502416Y952490D02*
X1515112D01*
X1517651Y955029D01*
Y960108D01*
X1515112Y962647D01*
X1502416D01*
X1520190Y967725D02*
Y977882D01*
X1502416Y993117D02*
X1504955Y988039D01*
X1510033Y982960D01*
X1515112D01*
X1517651Y985499D01*
Y990578D01*
X1515112Y993117D01*
X1512572D01*
X1510033Y990578D01*
Y982960D01*
X1504955Y998195D02*
X1502416Y1000734D01*
Y1005813D01*
X1504955Y1008352D01*
X1515112D01*
X1517651Y1005813D01*
Y1000734D01*
X1515112Y998195D01*
X1504955D01*
X1502416Y1023587D02*
Y1013430D01*
X1510033D01*
X1507494Y1018509D01*
Y1021048D01*
X1510033Y1023587D01*
X1515112D01*
X1517651Y1021048D01*
Y1015970D01*
X1515112Y1013430D01*
X1504955Y1028665D02*
X1502416Y1031205D01*
Y1036283D01*
X1504955Y1038822D01*
X1515112D01*
X1517651Y1036283D01*
Y1031205D01*
X1515112Y1028665D01*
X1504955D01*
X331470Y979927D02*
Y967231D01*
X334009Y964692D01*
X339087D01*
X341627Y967231D01*
Y979927D01*
X584454Y577591D02*
Y562356D01*
Y569973D01*
X594611D01*
Y577591D01*
Y562356D01*
X599689Y575052D02*
X609846Y564895D01*
X599689D02*
X609846Y575052D01*
X599689Y569973D02*
X609846D01*
X604767Y564895D02*
Y575052D01*
X509524Y788411D02*
Y773176D01*
X517141D01*
X519681Y775715D01*
Y785872D01*
X517141Y788411D01*
X509524D01*
X524759Y785872D02*
X534916Y775715D01*
X524759D02*
X534916Y785872D01*
X524759Y780794D02*
X534916D01*
X529837Y775715D02*
Y785872D01*
X765810Y1129030D02*
Y1139187D01*
X770888Y1144265D01*
X775967Y1139187D01*
Y1129030D01*
Y1136647D01*
X765810D01*
X781045Y1139187D02*
Y1129030D01*
Y1134108D01*
X783584Y1136647D01*
X786123Y1139187D01*
X788663D01*
X806437Y1144265D02*
Y1129030D01*
X798819D01*
X796280Y1131569D01*
Y1136647D01*
X798819Y1139187D01*
X806437D01*
X811515D02*
Y1131569D01*
X814054Y1129030D01*
X821672D01*
Y1139187D01*
X826750Y1129030D02*
X831829D01*
X829289D01*
Y1139187D01*
X826750D01*
X839446Y1129030D02*
Y1139187D01*
X847064D01*
X849603Y1136647D01*
Y1129030D01*
X857220D02*
X862299D01*
X864838Y1131569D01*
Y1136647D01*
X862299Y1139187D01*
X857220D01*
X854681Y1136647D01*
Y1131569D01*
X857220Y1129030D01*
X885151Y1144265D02*
Y1131569D01*
X887691Y1129030D01*
X892769D01*
X895308Y1131569D01*
Y1144265D01*
X900387Y1129030D02*
Y1139187D01*
X908004D01*
X910543Y1136647D01*
Y1129030D01*
X918161D02*
X923239D01*
X925778Y1131569D01*
Y1136647D01*
X923239Y1139187D01*
X918161D01*
X915621Y1136647D01*
Y1131569D01*
X918161Y1129030D01*
X1409954Y1116072D02*
X1420111Y1105915D01*
X1409954D02*
X1420111Y1116072D01*
X1409954Y1110993D02*
X1420111D01*
X1415032Y1105915D02*
Y1116072D01*
D12*
X413330Y979840D02*
X463330D01*
X413330Y777840D02*
X463330D01*
Y979840D01*
D13*
X777240Y885190D02*
Y897890D01*
X783590Y904240D01*
X796290D02*
X802640Y897890D01*
X777240Y885190D02*
X783590Y878840D01*
X796290D01*
X802640Y885190D01*
Y897890D01*
X777240Y1062990D02*
Y1075690D01*
X783590Y1082040D01*
X796290D02*
X802640Y1075690D01*
X783590Y1082040D02*
X796290D01*
X777240Y1050290D02*
X783590Y1056640D01*
X777240Y1037590D02*
Y1050290D01*
Y1037590D02*
X783590Y1031240D01*
X796290D01*
X802640Y1037590D01*
Y1050290D01*
X796290Y1056640D02*
X802640Y1050290D01*
X777240Y1062990D02*
X783590Y1056640D01*
X796290D01*
X802640Y1062990D01*
Y1075690D01*
X777240Y986790D02*
Y999490D01*
X783590Y1005840D01*
X796290D02*
X802640Y999490D01*
X777240Y1024890D02*
X783590Y1031240D01*
X777240Y1012190D02*
Y1024890D01*
Y1012190D02*
X783590Y1005840D01*
X796290D01*
X802640Y1012190D01*
Y1024890D01*
X796290Y1031240D02*
X802640Y1024890D01*
X777240Y974090D02*
X783590Y980440D01*
X777240Y961390D02*
Y974090D01*
Y961390D02*
X783590Y955040D01*
X796290D01*
X802640Y961390D01*
Y974090D01*
X796290Y980440D02*
X802640Y974090D01*
X777240Y986790D02*
X783590Y980440D01*
X796290D01*
X802640Y986790D01*
Y999490D01*
X777240Y910590D02*
Y923290D01*
X783590Y929640D01*
X796290D02*
X802640Y923290D01*
X777240Y948690D02*
X783590Y955040D01*
X777240Y935990D02*
Y948690D01*
Y935990D02*
X783590Y929640D01*
X796290D01*
X802640Y935990D01*
Y948690D01*
X796290Y955040D02*
X802640Y948690D01*
X777240Y910590D02*
X783590Y904240D01*
X796290D01*
X802640Y910590D01*
Y923290D01*
X777240Y615950D02*
Y628650D01*
X783590Y635000D01*
X796290D02*
X802640Y628650D01*
X777240Y615950D02*
X783590Y609600D01*
X796290D01*
X802640Y615950D01*
Y628650D01*
X777240Y844550D02*
Y857250D01*
X783590Y863600D01*
X796290D02*
X802640Y857250D01*
X783590Y863600D02*
X796290D01*
X777240Y831850D02*
X783590Y838200D01*
X777240Y819150D02*
Y831850D01*
Y819150D02*
X783590Y812800D01*
X796290D01*
X802640Y819150D01*
Y831850D01*
X796290Y838200D02*
X802640Y831850D01*
X777240Y844550D02*
X783590Y838200D01*
X796290D01*
X802640Y844550D01*
Y857250D01*
X777240Y768350D02*
Y781050D01*
X783590Y787400D01*
X796290D02*
X802640Y781050D01*
X777240Y806450D02*
X783590Y812800D01*
X777240Y793750D02*
Y806450D01*
Y793750D02*
X783590Y787400D01*
X796290D01*
X802640Y793750D01*
Y806450D01*
X796290Y812800D02*
X802640Y806450D01*
X777240Y755650D02*
X783590Y762000D01*
X777240Y742950D02*
Y755650D01*
Y742950D02*
X783590Y736600D01*
X796290D01*
X802640Y742950D01*
Y755650D01*
X796290Y762000D02*
X802640Y755650D01*
X777240Y768350D02*
X783590Y762000D01*
X796290D01*
X802640Y768350D01*
Y781050D01*
X777240Y692150D02*
Y704850D01*
X783590Y711200D01*
X796290D02*
X802640Y704850D01*
X777240Y730250D02*
X783590Y736600D01*
X777240Y717550D02*
Y730250D01*
Y717550D02*
X783590Y711200D01*
X796290D01*
X802640Y717550D01*
Y730250D01*
X796290Y736600D02*
X802640Y730250D01*
X777240Y679450D02*
X783590Y685800D01*
X777240Y666750D02*
Y679450D01*
Y666750D02*
X783590Y660400D01*
X796290D01*
X802640Y666750D01*
Y679450D01*
X796290Y685800D02*
X802640Y679450D01*
X777240Y692150D02*
X783590Y685800D01*
X796290D01*
X802640Y692150D01*
Y704850D01*
X777240Y654050D02*
X783590Y660400D01*
X777240Y641350D02*
Y654050D01*
Y641350D02*
X783590Y635000D01*
X796290D01*
X802640Y641350D01*
Y654050D01*
X796290Y660400D02*
X802640Y654050D01*
X1285240Y1062990D02*
Y1075690D01*
X1278890Y1056640D02*
X1285240Y1062990D01*
X1259840D02*
X1266190Y1056640D01*
X1278890Y1082040D02*
X1285240Y1075690D01*
X1266190Y1082040D02*
X1278890D01*
X1259840Y1075690D02*
X1266190Y1082040D01*
X1259840Y1062990D02*
Y1075690D01*
X1285240Y935990D02*
Y948690D01*
X1278890Y929640D02*
X1285240Y935990D01*
X1259840D02*
X1266190Y929640D01*
X1278890D01*
Y955040D02*
X1285240Y961390D01*
Y974090D01*
X1278890Y980440D02*
X1285240Y974090D01*
X1266190Y980440D02*
X1278890D01*
X1259840Y974090D02*
X1266190Y980440D01*
X1259840Y961390D02*
Y974090D01*
Y961390D02*
X1266190Y955040D01*
X1278890D02*
X1285240Y948690D01*
X1266190Y955040D02*
X1278890D01*
X1259840Y948690D02*
X1266190Y955040D01*
X1259840Y935990D02*
Y948690D01*
X1285240Y1012190D02*
Y1024890D01*
X1278890Y1005840D02*
X1285240Y1012190D01*
X1259840D02*
X1266190Y1005840D01*
X1278890Y980440D02*
X1285240Y986790D01*
Y999490D01*
X1278890Y1005840D02*
X1285240Y999490D01*
X1266190Y1005840D02*
X1278890D01*
X1259840Y999490D02*
X1266190Y1005840D01*
X1259840Y986790D02*
Y999490D01*
Y986790D02*
X1266190Y980440D01*
X1278890Y1031240D02*
X1285240Y1037590D01*
Y1050290D01*
X1278890Y1056640D02*
X1285240Y1050290D01*
X1266190Y1056640D02*
X1278890D01*
X1259840Y1050290D02*
X1266190Y1056640D01*
X1259840Y1037590D02*
Y1050290D01*
Y1037590D02*
X1266190Y1031240D01*
X1278890D02*
X1285240Y1024890D01*
X1266190Y1031240D02*
X1278890D01*
X1259840Y1024890D02*
X1266190Y1031240D01*
X1259840Y1012190D02*
Y1024890D01*
X1285240Y885190D02*
Y897890D01*
X1278890Y878840D02*
X1285240Y885190D01*
X1259840D02*
X1266190Y878840D01*
X1278890Y904240D02*
X1285240Y897890D01*
X1266190Y904240D02*
X1278890D01*
X1259840Y897890D02*
X1266190Y904240D01*
X1259840Y885190D02*
Y897890D01*
X1285240Y707390D02*
Y720090D01*
X1278890Y701040D02*
X1285240Y707390D01*
X1259840D02*
X1266190Y701040D01*
X1278890D01*
Y726440D02*
X1285240Y732790D01*
Y745490D01*
X1278890Y751840D02*
X1285240Y745490D01*
X1266190Y751840D02*
X1278890D01*
X1259840Y745490D02*
X1266190Y751840D01*
X1259840Y732790D02*
Y745490D01*
Y732790D02*
X1266190Y726440D01*
X1278890D02*
X1285240Y720090D01*
X1266190Y726440D02*
X1278890D01*
X1259840Y720090D02*
X1266190Y726440D01*
X1259840Y707390D02*
Y720090D01*
X1285240Y783590D02*
Y796290D01*
X1278890Y777240D02*
X1285240Y783590D01*
X1259840D02*
X1266190Y777240D01*
X1278890Y751840D02*
X1285240Y758190D01*
Y770890D01*
X1278890Y777240D02*
X1285240Y770890D01*
X1266190Y777240D02*
X1278890D01*
X1259840Y770890D02*
X1266190Y777240D01*
X1259840Y758190D02*
Y770890D01*
Y758190D02*
X1266190Y751840D01*
X1278890Y802640D02*
X1285240Y808990D01*
Y821690D01*
X1278890Y828040D02*
X1285240Y821690D01*
X1266190Y828040D02*
X1278890D01*
X1259840Y821690D02*
X1266190Y828040D01*
X1259840Y808990D02*
Y821690D01*
Y808990D02*
X1266190Y802640D01*
X1278890D02*
X1285240Y796290D01*
X1266190Y802640D02*
X1278890D01*
X1259840Y796290D02*
X1266190Y802640D01*
X1259840Y783590D02*
Y796290D01*
X1285240Y859790D02*
Y872490D01*
X1278890Y853440D02*
X1285240Y859790D01*
X1259840D02*
X1266190Y853440D01*
X1278890Y828040D02*
X1285240Y834390D01*
Y847090D01*
X1278890Y853440D02*
X1285240Y847090D01*
X1266190Y853440D02*
X1278890D01*
X1259840Y847090D02*
X1266190Y853440D01*
X1259840Y834390D02*
Y847090D01*
Y834390D02*
X1266190Y828040D01*
X1278890Y878840D02*
X1285240Y872490D01*
X1266190Y878840D02*
X1278890D01*
X1259840Y872490D02*
X1266190Y878840D01*
X1259840Y859790D02*
Y872490D01*
D14*
X836930Y1035050D02*
Y1052830D01*
X828040Y1043940D02*
X836930Y1052830D01*
X828040Y1043940D02*
X836930Y1035050D01*
X828040Y1061720D02*
Y1079500D01*
Y1061720D02*
X836930Y1070610D01*
X828040Y1079500D02*
X836930Y1070610D01*
X830580Y1043940D02*
X835660Y1038860D01*
X830580Y1043940D02*
X835660Y1049020D01*
Y1041400D02*
Y1049020D01*
X833120Y1045210D02*
X835660Y1041400D01*
X829310Y1065530D02*
Y1075690D01*
X834390Y1070610D01*
X830580Y1066800D02*
X834390Y1070610D01*
X830580Y1066800D02*
Y1071880D01*
X831850Y1070610D02*
X833120D01*
D15*
X1242673Y811968D02*
Y803910D01*
X1248717D01*
X1246702Y807939D01*
Y809953D01*
X1248717Y811968D01*
X1252746D01*
X1254760Y809953D01*
Y805924D01*
X1252746Y803910D01*
X1242673Y815996D02*
X1250731D01*
X1254760Y820025D01*
X1250731Y824054D01*
X1242673D01*
Y877570D02*
X1250731D01*
X1254760Y881599D01*
X1250731Y885628D01*
X1242673D01*
Y889657D02*
Y893685D01*
Y891671D01*
X1254760D01*
Y889657D01*
Y893685D01*
Y899729D02*
X1242673D01*
X1254760Y907786D01*
X1242673D01*
X1244688Y842702D02*
X1242673Y840687D01*
Y836658D01*
X1244688Y834644D01*
X1252746D01*
X1254760Y836658D01*
Y840687D01*
X1252746Y842702D01*
X1248717D01*
Y838673D01*
X1254760Y846730D02*
X1242673D01*
X1254760Y854788D01*
X1242673D01*
Y858817D02*
X1254760D01*
Y864860D01*
X1252746Y866875D01*
X1244688D01*
X1242673Y864860D01*
Y858817D01*
X825850Y728366D02*
X821821D01*
X823835D01*
Y716280D01*
X825850Y718294D01*
X815778D02*
X813763Y716280D01*
X809734D01*
X807720Y718294D01*
Y720309D01*
X809734Y722323D01*
X811749D01*
X809734D01*
X807720Y724338D01*
Y726352D01*
X809734Y728366D01*
X813763D01*
X815778Y726352D01*
X825850Y753766D02*
X821821D01*
X823835D01*
Y741680D01*
X825850Y743694D01*
X807720Y753766D02*
X815778D01*
X807720Y745709D01*
Y743694D01*
X809734Y741680D01*
X813763D01*
X815778Y743694D01*
X821821Y779166D02*
X817792D01*
X819807D01*
Y767080D01*
X821821Y769094D01*
X811749Y779166D02*
X807720D01*
X809734D01*
Y767080D01*
X811749Y769094D01*
X825850Y804566D02*
X821821D01*
X823835D01*
Y792480D01*
X825850Y794494D01*
X815778D02*
X813763Y792480D01*
X809734D01*
X807720Y794494D01*
Y802552D01*
X809734Y804566D01*
X813763D01*
X815778Y802552D01*
Y794494D01*
Y827952D02*
X813763Y829967D01*
X809734D01*
X807720Y827952D01*
Y819894D01*
X809734Y817880D01*
X813763D01*
X815778Y819894D01*
Y821909D01*
X813763Y823923D01*
X807720D01*
X815778Y845294D02*
X813763Y843280D01*
X809734D01*
X807720Y845294D01*
Y847309D01*
X809734Y849323D01*
X807720Y851338D01*
Y853352D01*
X809734Y855367D01*
X813763D01*
X815778Y853352D01*
Y851338D01*
X813763Y849323D01*
X815778Y847309D01*
Y845294D01*
X813763Y849323D02*
X809734D01*
X815778Y883920D02*
X807720D01*
Y885934D01*
X815778Y893992D01*
Y896006D01*
X807720Y909320D02*
X811749Y911334D01*
X815778Y915363D01*
Y919392D01*
X813763Y921406D01*
X809734D01*
X807720Y919392D01*
Y917378D01*
X809734Y915363D01*
X815778D01*
X807720Y934720D02*
X815778D01*
Y940763D01*
X811749Y938749D01*
X809734D01*
X807720Y940763D01*
Y944792D01*
X809734Y946806D01*
X813763D01*
X815778Y944792D01*
X809734Y972206D02*
Y960120D01*
X815778Y966163D01*
X807720D01*
X815778Y987534D02*
X813763Y985520D01*
X809734D01*
X807720Y987534D01*
Y989549D01*
X809734Y991563D01*
X811749D01*
X809734D01*
X807720Y993578D01*
Y995592D01*
X809734Y997607D01*
X813763D01*
X815778Y995592D01*
X807720Y1023007D02*
X815778D01*
X807720Y1014949D01*
Y1012934D01*
X809734Y1010920D01*
X813763D01*
X815778Y1012934D01*
X811749Y1048407D02*
X807720D01*
X809734D01*
Y1036320D01*
X811749Y1038334D01*
X815778Y1063734D02*
X813763Y1061720D01*
X809734D01*
X807720Y1063734D01*
Y1071792D01*
X809734Y1073807D01*
X813763D01*
X815778Y1071792D01*
Y1063734D01*
D16*
X1254506Y934466D02*
X1248751D01*
X1245873Y937344D01*
X1248751Y940221D01*
X1254506D01*
X1250189D01*
Y934466D01*
X1247312Y943099D02*
X1245873Y944538D01*
Y947416D01*
X1247312Y948855D01*
X1253067D01*
X1254506Y947416D01*
Y944538D01*
X1253067Y943099D01*
X1247312D01*
X1254506Y959866D02*
X1248751D01*
X1245873Y962744D01*
X1248751Y965621D01*
X1254506D01*
X1250189D01*
Y959866D01*
X1254506Y968499D02*
Y971377D01*
Y969938D01*
X1245873D01*
X1247312Y968499D01*
X1254506Y985266D02*
X1248751D01*
X1245873Y988144D01*
X1248751Y991021D01*
X1254506D01*
X1250189D01*
Y985266D01*
X1254506Y999655D02*
Y993899D01*
X1248751Y999655D01*
X1247312D01*
X1245873Y998216D01*
Y995338D01*
X1247312Y993899D01*
X1254506Y1010666D02*
X1248751D01*
X1245873Y1013544D01*
X1248751Y1016422D01*
X1254506D01*
X1250189D01*
Y1010666D01*
X1247312Y1019299D02*
X1245873Y1020738D01*
Y1023616D01*
X1247312Y1025055D01*
X1248751D01*
X1250189Y1023616D01*
Y1022177D01*
Y1023616D01*
X1251628Y1025055D01*
X1253067D01*
X1254506Y1023616D01*
Y1020738D01*
X1253067Y1019299D01*
X1254506Y1036066D02*
X1248751D01*
X1245873Y1038944D01*
X1248751Y1041822D01*
X1254506D01*
X1250189D01*
Y1036066D01*
X1254506Y1049016D02*
X1245873D01*
X1250189Y1044699D01*
Y1050455D01*
X1254506Y1061466D02*
X1248751D01*
X1245873Y1064344D01*
X1248751Y1067222D01*
X1254506D01*
X1250189D01*
Y1061466D01*
X1245873Y1075855D02*
Y1070099D01*
X1250189D01*
X1248751Y1072977D01*
Y1074416D01*
X1250189Y1075855D01*
X1253067D01*
X1254506Y1074416D01*
Y1071538D01*
X1253067Y1070099D01*
D17*
X850513Y676805D02*
Y668747D01*
X846484Y664718D01*
X842456Y668747D01*
Y676805D01*
Y670761D01*
X850513D01*
X838427Y676805D02*
Y664718D01*
X832383D01*
X830369Y666732D01*
Y670761D01*
X832383Y672776D01*
X838427D01*
X834398D02*
X830369Y676805D01*
X818282Y664718D02*
X826340D01*
Y676805D01*
X818282D01*
X826340Y670761D02*
X822311D01*
X806196Y664718D02*
X814254D01*
Y670761D01*
X810225D01*
X814254D01*
Y676805D01*
X830623Y693148D02*
X832637Y691134D01*
X836666D01*
X838681Y693148D01*
Y701206D01*
X836666Y703221D01*
X832637D01*
X830623Y701206D01*
Y697177D01*
X834652D01*
X826594Y703221D02*
Y691134D01*
X818537Y703221D01*
Y691134D01*
X814508D02*
Y703221D01*
X808464D01*
X806450Y701206D01*
Y693148D01*
X808464Y691134D01*
X814508D01*
X1253490Y767080D02*
Y754994D01*
X1247447D01*
X1245432Y757008D01*
Y761037D01*
X1247447Y763051D01*
X1253490D01*
X1249461D02*
X1245432Y767080D01*
X1233346Y754994D02*
X1241404D01*
Y767080D01*
X1233346D01*
X1241404Y761037D02*
X1237375D01*
X1221259Y757008D02*
X1223274Y754994D01*
X1227303D01*
X1229317Y757008D01*
Y759022D01*
X1227303Y761037D01*
X1223274D01*
X1221259Y763051D01*
Y765066D01*
X1223274Y767080D01*
X1227303D01*
X1229317Y765066D01*
X1209173Y754994D02*
X1217231D01*
Y767080D01*
X1209173D01*
X1217231Y761037D02*
X1213202D01*
X1205144Y754994D02*
X1197086D01*
X1201115D01*
Y767080D01*
X1254760Y784948D02*
X1252746Y782934D01*
X1248717D01*
X1246702Y784948D01*
Y786962D01*
X1248717Y788977D01*
X1250731D01*
X1248717D01*
X1246702Y790991D01*
Y793006D01*
X1248717Y795020D01*
X1252746D01*
X1254760Y793006D01*
X1242673Y782934D02*
Y790991D01*
X1238645Y795020D01*
X1234616Y790991D01*
Y782934D01*
X1230587Y784948D02*
X1228573Y782934D01*
X1224544D01*
X1222529Y784948D01*
Y786962D01*
X1224544Y788977D01*
X1226558D01*
X1224544D01*
X1222529Y790991D01*
Y793006D01*
X1224544Y795020D01*
X1228573D01*
X1230587Y793006D01*
X1253490Y733403D02*
X1249461D01*
X1251476D01*
Y745490D01*
X1253490D01*
X1249461D01*
X1237375Y733403D02*
X1241404D01*
X1243418Y735418D01*
Y743476D01*
X1241404Y745490D01*
X1237375D01*
X1235360Y743476D01*
Y735418D01*
X1237375Y733403D01*
X1231331Y745490D02*
Y733403D01*
X1225288D01*
X1223274Y735418D01*
Y739447D01*
X1225288Y741461D01*
X1231331D01*
X1227303D02*
X1223274Y745490D01*
X1211187Y733403D02*
X1219245D01*
Y745490D01*
X1211187D01*
X1219245Y739447D02*
X1215216D01*
X1199101Y733403D02*
X1207159D01*
Y739447D01*
X1203130D01*
X1207159D01*
Y745490D01*
X863346Y1039473D02*
X855288D01*
X859317D01*
Y1051560D01*
X851260Y1039473D02*
X843202Y1051560D01*
Y1039473D02*
X851260Y1051560D01*
X863600Y1076960D02*
Y1064874D01*
X857557D01*
X855542Y1066888D01*
Y1070917D01*
X857557Y1072931D01*
X863600D01*
X859571D02*
X855542Y1076960D01*
X851514Y1064874D02*
X843456Y1076960D01*
Y1064874D02*
X851514Y1076960D01*
X833482Y616868D02*
X835497Y614854D01*
X839526D01*
X841540Y616868D01*
Y618882D01*
X839526Y620897D01*
X835497D01*
X833482Y622911D01*
Y624926D01*
X835497Y626940D01*
X839526D01*
X841540Y624926D01*
X821396Y616868D02*
X823410Y614854D01*
X827439D01*
X829454Y616868D01*
Y624926D01*
X827439Y626940D01*
X823410D01*
X821396Y624926D01*
X817367Y614854D02*
Y626940D01*
X809309D01*
X833612Y642154D02*
X835627Y640139D01*
X839656D01*
X841670Y642154D01*
Y644168D01*
X839656Y646183D01*
X835627D01*
X833612Y648197D01*
Y650212D01*
X835627Y652226D01*
X839656D01*
X841670Y650212D01*
X829584Y640139D02*
Y652226D01*
X823540D01*
X821526Y650212D01*
Y642154D01*
X823540Y640139D01*
X829584D01*
X817497Y652226D02*
Y644168D01*
X813468Y640139D01*
X809439Y644168D01*
Y652226D01*
Y646183D01*
X817497D01*
M02*
