G04*
G04 #@! TF.GenerationSoftware,Altium Limited,Altium Designer,23.9.2 (47)*
G04*
G04 Layer_Color=8388736*
%FSLAX44Y44*%
%MOMM*%
G71*
G04*
G04 #@! TF.SameCoordinates,78F578D7-C6A0-49DB-A759-4A378E73C2F3*
G04*
G04*
G04 #@! TF.FilePolarity,Negative*
G04*
G01*
G75*
%ADD18C,1.7272*%
%ADD19O,2.2032X1.7272*%
%ADD20R,1.8232X1.8232*%
%ADD21C,1.8232*%
%ADD22C,2.5032*%
%ADD23O,2.2032X1.7032*%
%ADD24O,2.2032X1.7272*%
%ADD25R,2.2032X1.7272*%
D18*
X746760Y829310D02*
D03*
X450850Y925830D02*
D03*
X1379220Y904240D02*
D03*
X756920Y1021080D02*
D03*
D19*
X543560Y713740D02*
D03*
Y739140D02*
D03*
Y662940D02*
D03*
Y688340D02*
D03*
D20*
X367030Y967740D02*
D03*
D21*
X417830Y955040D02*
D03*
X367030Y942340D02*
D03*
X417830Y929640D02*
D03*
X367030Y916940D02*
D03*
X417830Y904240D02*
D03*
X367030Y891540D02*
D03*
X417830Y878840D02*
D03*
X367030Y866140D02*
D03*
X417830Y853440D02*
D03*
X367030Y840740D02*
D03*
X417830Y828040D02*
D03*
X367030Y815340D02*
D03*
X417830Y802640D02*
D03*
X367030Y789940D02*
D03*
D22*
X789940Y891540D02*
D03*
Y916940D02*
D03*
Y942340D02*
D03*
Y967740D02*
D03*
Y993140D02*
D03*
Y1018540D02*
D03*
Y1043940D02*
D03*
Y1069340D02*
D03*
Y622300D02*
D03*
Y647700D02*
D03*
Y673100D02*
D03*
Y698500D02*
D03*
Y723900D02*
D03*
Y749300D02*
D03*
Y774700D02*
D03*
Y800100D02*
D03*
Y825500D02*
D03*
Y850900D02*
D03*
X1272540Y1069340D02*
D03*
Y1043940D02*
D03*
Y1018540D02*
D03*
Y993140D02*
D03*
Y967740D02*
D03*
Y942340D02*
D03*
Y891540D02*
D03*
Y866140D02*
D03*
Y840740D02*
D03*
Y815340D02*
D03*
Y789940D02*
D03*
Y764540D02*
D03*
Y739140D02*
D03*
Y713740D02*
D03*
D23*
X596900Y511810D02*
D03*
Y537210D02*
D03*
D24*
X1427480Y894080D02*
D03*
Y919480D02*
D03*
Y1046480D02*
D03*
Y944880D02*
D03*
Y1021080D02*
D03*
Y970280D02*
D03*
Y995680D02*
D03*
D25*
Y1071880D02*
D03*
M02*
